# xmcd
#
# Track frame offsets: 
#        150
#        14825
#        20886
#        36224
#        48086
#        63867
#        76162
#        89074
#        100463
#        114706
#        126736
#        142567
#        156486
#        167665
#        169224
#        189059
#        195193
#        209535
#        220749
#        236035
#        247773
#        258538
#        269724
#        281812
#        293673
#        307477
#        320954
#        331781
#
# Disc length: 4457 seconds
#
# Revision: 0
# Processed by: cddbd v1.5.2PL0 Copyright (c) Steve Scherf et al.
# Submitted via: ExactAudioCopy v0.95b3
#
DISCID=ae11671c
DTITLE=The Beatles  - Live 08 - Sheaken, Not Stirred - Disc 2
DYEAR=1900
DGENRE=
TTITLE0=intro (The Ultimate Live Collection Volume 1)
TTITLE1=Twist And Shout (The Ultimate Live Collection Volume 1)
TTITLE2=Shes A Woman (The Ultimate Live Collection Volume 1)
TTITLE3=I Feel Fine (The Ultimate Live Collection Volume 1)
TTITLE4=Dizzy Miss Lizzy (The Ultimate Live Collection Volume 1)
TTITLE5=Ticket To Ride (The Ultimate Live Collection Volume 1)
TTITLE6=Everybodys Trying To Be My Baby (The Ultimate Live Collection 
TTITLE6=Volume 1)
TTITLE7=Cant Buy Me Love (The Ultimate Live Collection Volume 1)
TTITLE8=Babys In Black (The Ultimate Live Collection Volume 1)
TTITLE9=I Wanna Be Your Man (The Ultimate Live Collection Volume 1)
TTITLE10=A Hard Days Night (The Ultimate Live Collection Volume 1)
TTITLE11=Help! (The Ultimate Live Collection Volume 1)
TTITLE12=I'm Down (The Ultimate Live Collection Volume 1)
TTITLE13=outro (The Ultimate Live Collection Volume 1)
TTITLE14=intro (The Ultimate Live Collection Volume 1)
TTITLE15=Twist And Shout (The Ultimate Live Collection Volume 1)
TTITLE16=Shes A Woman (The Ultimate Live Collection Volume 1)
TTITLE17=I Feel Fine (The Ultimate Live Collection Volume 1)
TTITLE18=Dizzy Miss Lizzy (The Ultimate Live Collection Volume 1)
TTITLE19=Ticket To Ride (The Ultimate Live Collection Volume 1)
TTITLE20=Everybodys Trying To Be My Baby (The Ultimate Live Collection
TTITLE20=Volume 1)
TTITLE21=Cant Buy Me Love (The Ultimate Live Collection Volume 1)
TTITLE22=Babys In Black (The Ultimate Live Collection Volume 1)
TTITLE23=I Wanna Be Your Man (The Ultimate Live Collection Volume 1)
TTITLE24=A Hard Days Night (The Ultimate Live Collection Volume 1)
TTITLE25=Help! (The Ultimate Live Collection Volume 1)
TTITLE26=I'm Down (The Ultimate Live Collection Volume 1)
TTITLE27=outro (The Ultimate Live Collection Volume 1)
EXTD=
EXTT0=
EXTT1=
EXTT2=
EXTT3=
EXTT4=
EXTT5=
EXTT6=
EXTT7=
EXTT8=
EXTT9=
EXTT10=
EXTT11=
EXTT12=
EXTT13=
EXTT14=
EXTT15=
EXTT16=
EXTT17=
EXTT18=
EXTT19=
EXTT20=
EXTT21=
EXTT22=
EXTT23=
EXTT24=
EXTT25=
EXTT26=
EXTT27=
PLAYORDER=
